<svg xmlns="http://www.w3.org/2000/svg" viewBox="0 0 500 500"><g id="freepik--Device--inject-136"><path d="M260.81,327.81s-7.71,39.13-55,48c0,0-12.35,9.85-16.46,15.68s-26,15.74-48.3,46.66-55.5-67.27-55.5-67.27l73.38-95.3Z" style="fill-opacity:0.7000000000000001;opacity:0.2"></path><path d="M302.84,144.08s25.5-12.47,31.11-10.32,11,15.05-10.45,27.4-15.05,35.36-15.05,35.36h15.3s9.18,3.74,12.75,8.55,6.12,21.21,8.16,26.77,1,11.13-4.59,12.94c0,0-3.57,15.56-2.55,22.46s.51,11.34-6.12,12.18a11.57,11.57,0,0,1-12.75-12.18l-5.1,18.48,3.57,7.1a46.16,46.16,0,0,1,13.77,8.34c7.14,6.12,14.28,7.79,12.24,14.61s-6.12,14.17-27.54,5.65-39.27-42-39.27-42L263.45,162.68Z" style="fill:#fff"></path><path d="M329.68,211.14c-11.56,15.76,1.23,33.91,1.23,33.91s-8,4.46-8.23,15.84c-.09,4.73,1.1,11.34,2.52,17.46a11.46,11.46,0,0,1-6.54-11.11l-5.11,18.48,3.57,7.09a43.77,43.77,0,0,1,10.52,5.79c-3.17,7.28-4.14,16.28-3.86,25.56a68.24,68.24,0,0,1-8.19-2.74c-21.42-8.53-39.27-42-39.27-42L263.45,162.67l39.39-18.59s13.93-6.81,23.47-9.5c-.74,8.92,1,18.15,2.26,23.29a53.8,53.8,0,0,1-5.07,3.29c-21.42,12.35-15.05,35.36-15.05,35.36h15.31s8.72,3.56,12.46,8.19A25,25,0,0,0,329.68,211.14Z" style="fill:#92E3A9;opacity:0.4"></path><path d="M263,309s-27.74,54.39-77.74,66.73c0,0-1.91,10.76-10.37,15.38-4.52,2.46-22.76,29.79-38.77,54.74L47.44,391.45c5.46-5.4,11.68-11.62,18-18.11,18.5-18.86,38.24-40,44.28-50.46,5.4-9.3,12.23-25.44,18.18-40.61,7.62-19.4,13.82-37.22,13.82-37.22l29.56-32.86,46.47-51.67,2,6.61Z" style="fill:#fff"></path><path d="M217.79,160.52,263,309s-27.74,54.39-77.74,66.73c0,0-1.91,10.76-10.37,15.38-4.06,2.21-19.17,24.46-33.79,47,5.42-18.6,21.11-48.25,21.11-48.25-10.07-11.93-7.13-24.5-3.1-20.92s14.16,13.64,14.8,14.27c-4.45-5.24-5.48-13.45-5.48-13.45s12.48,8.3,13.49-5-7.48-45.8-7.48-45.8L152.15,233.5Z" style="fill:#92E3A9;opacity:0.4"></path><path d="M263.45,162.68l39.39-18.6s25.5-12.47,31.11-10.32,11,15.05-10.45,27.4-15.05,35.36-15.05,35.36h15.3s9.18,3.74,12.75,8.55,6.12,21.21,8.16,26.77,1,11.13-4.59,12.94c0,0-3.57,15.56-2.55,22.46s.51,11.34-6.12,12.18a11.57,11.57,0,0,1-12.75-12.18l-5.1,18.48,3.57,7.1a46.16,46.16,0,0,1,13.77,8.34c7.14,6.12,14.28,7.79,12.24,14.61s-6.12,14.17-27.54,5.65-39.27-42-39.27-42" style="fill:none;stroke:#263238;stroke-linecap:round;stroke-linejoin:round"></path><path d="M340.07,244.78c-7.65,2.07-16.57.54-19.89-13s3.32-28,7.65-29.33" style="fill:none;stroke:#263238;stroke-linecap:round;stroke-linejoin:round"></path><path d="M318.65,267.24s-.51-17.41,5.87-21.71" style="fill:none;stroke:#263238;stroke-linecap:round;stroke-linejoin:round"></path><path d="M132.62,353.71s-18.69-2.33-22.86-10.69c-3.45-6.92-22.15,19-44.28,30.32,18.5-18.86,38.24-40,44.28-50.46,5.4-9.3,12.23-25.44,18.18-40.61v0c-.3,12.58-7,31.84-5.09,41.87a8.05,8.05,0,0,0-5.75,9.74C118.53,341.85,132.62,353.71,132.62,353.71Z" style="fill:#92E3A9;opacity:0.4"></path><path d="M263,309s-27.74,54.39-77.75,66.73c0,0-1.9,10.76-10.36,15.38-4.52,2.46-22.75,29.79-38.78,54.74" style="fill:none;stroke:#263238;stroke-linecap:round;stroke-linejoin:round"></path><path d="M47.44,391.45c21.36-21.11,54.19-54.58,62.32-68.57,12.3-21.17,32-77.84,32-77.84l76-84.52" style="fill:none;stroke:#263238;stroke-linecap:round;stroke-linejoin:round"></path><path d="M174.39,225.07s11.68,10.46,15,20" style="fill:none;stroke:#263238;stroke-linecap:round;stroke-linejoin:round"></path><rect x="179.86" y="72.72" width="139.13" height="280.99" rx="6.73" style="fill:#263238"></rect><path d="M277,80.37l-2.66,4.87A3.32,3.32,0,0,1,271.43,87h-44a3.35,3.35,0,0,1-2.92-1.74l-2.65-4.87a3.32,3.32,0,0,0-2.92-1.74H188.19A3.33,3.33,0,0,0,184.87,82V345a3.33,3.33,0,0,0,3.32,3.33H310.65A3.33,3.33,0,0,0,314,345V82a3.33,3.33,0,0,0-3.33-3.33H279.93A3.32,3.32,0,0,0,277,80.37Z" style="fill:#92E3A9;stroke:#263238;stroke-linecap:round;stroke-linejoin:round"></path><circle cx="239.88" cy="80.94" r="1.79" style="fill:none;stroke:#fff;stroke-miterlimit:10"></circle><path d="M260.75,80.94a1.11,1.11,0,1,1-1.11-1.12A1.11,1.11,0,0,1,260.75,80.94Z" style="fill:none;stroke:#fff;stroke-miterlimit:10"></path><path d="M255.77,80.24H244.89a.69.69,0,0,0-.69.7h0a.69.69,0,0,0,.69.69h10.88a.69.69,0,0,0,.69-.69h0A.69.69,0,0,0,255.77,80.24Z" style="fill:#fff"></path><rect x="195.91" y="85.32" width="11.73" height="4.98" style="fill:none;stroke:#263238;stroke-linecap:round;stroke-linejoin:round"></rect><rect x="207.63" y="86.16" width="1.82" height="3.31" style="fill:none;stroke:#263238;stroke-linecap:round;stroke-linejoin:round"></rect><rect x="288.68" y="88.5" width="2.08" height="1.81" style="fill:none;stroke:#263238;stroke-linecap:round;stroke-linejoin:round"></rect><rect x="292.74" y="86.68" width="2.08" height="3.63" style="fill:none;stroke:#263238;stroke-linecap:round;stroke-linejoin:round"></rect><rect x="296.8" y="84.86" width="2.08" height="5.44" style="fill:none;stroke:#263238;stroke-linecap:round;stroke-linejoin:round"></rect><rect x="300.85" y="83.04" width="2.08" height="7.26" style="fill:none;stroke:#263238;stroke-linecap:round;stroke-linejoin:round"></rect><rect x="185.7" y="136.76" width="127.44" height="121.55" style="fill:#fff;opacity:0.5"></rect><path d="M220.9,117.35v2.11c0,2.61-1.25,4-3.81,4h-1.21v6.11h-2.56V113.32h3.77C219.65,113.32,220.9,114.74,220.9,117.35Zm-5-1.7v5.51h1.21c.81,0,1.25-.37,1.25-1.53v-2.45c0-1.16-.44-1.53-1.25-1.53Z" style="fill:#263238"></path><path d="M230.07,129.6h-2.58l-.45-2.95h-3.13l-.45,2.95h-2.35l2.61-16.28h3.74Zm-5.84-5.16h2.47l-1.21-8.23h-.05Z" style="fill:#263238"></path><path d="M232.51,124.21l-3.23-10.89H232l1.93,7.42h.05l1.93-7.42h2.44l-3.23,10.89v5.39h-2.56Z" style="fill:#263238"></path><path d="M244.72,124.88h.05l1.72-11.56h3.56V129.6h-2.42V117.93h0l-1.72,11.67h-2.42l-1.86-11.51h0V129.6H239.3V113.32h3.56Z" style="fill:#263238"></path><path d="M254.47,120.18H258v2.33h-3.51v4.77h4.42v2.32h-7V113.32h7v2.33h-4.42Z" style="fill:#263238"></path><path d="M262.8,117.81h-.05V129.6h-2.3V113.32h3.21l2.58,9.75h0v-9.75h2.28V129.6h-2.62Z" style="fill:#263238"></path><path d="M269.66,113.32h7.91v2.33h-2.68V129.6h-2.56V115.65h-2.67Z" style="fill:#263238"></path><path d="M282.13,113.14c2.48,0,3.76,1.49,3.76,4.09v.51h-2.42v-.67c0-1.17-.46-1.61-1.28-1.61s-1.27.44-1.27,1.61.51,2.07,2.18,3.53c2.14,1.89,2.82,3.23,2.82,5.09,0,2.61-1.31,4.1-3.82,4.1s-3.81-1.49-3.81-4.1v-1h2.42v1.17c0,1.16.51,1.58,1.32,1.58s1.33-.42,1.33-1.58-.51-2.07-2.19-3.54c-2.14-1.88-2.81-3.23-2.81-5.09C278.36,114.63,279.64,113.14,282.13,113.14Z" style="fill:#263238"></path><rect x="195.91" y="151.49" width="107.02" height="15.99" style="fill:#fff;stroke:#263238;stroke-linecap:round;stroke-linejoin:round"></rect><rect x="195.91" y="181.48" width="107.02" height="15.99" style="fill:#fff;stroke:#263238;stroke-linecap:round;stroke-linejoin:round"></rect><rect x="195.91" y="208.75" width="107.02" height="15.99" style="fill:#fff;stroke:#263238;stroke-linecap:round;stroke-linejoin:round"></rect><rect x="195.91" y="230.57" width="50.67" height="18.72" style="fill:#fff;stroke:#263238;stroke-linecap:round;stroke-linejoin:round"></rect><rect x="252.27" y="230.57" width="50.67" height="18.72" style="fill:#fff;stroke:#263238;stroke-linecap:round;stroke-linejoin:round"></rect><path d="M202.58,148.7v.43h-3.35V144.4h3.25v.43h-2.74v1.69h2.44v.42h-2.44v1.76Z" style="fill:#263238"></path><path d="M209.52,147.07v2.06H209v-2c0-.75-.38-1.14-1-1.14a1.15,1.15,0,0,0-1.19,1.29v1.86h-.48v-2c0-.75-.38-1.14-1-1.14a1.15,1.15,0,0,0-1.19,1.29v1.86h-.48v-3.55h.46v.65a1.44,1.44,0,0,1,1.31-.68,1.26,1.26,0,0,1,1.26.75,1.56,1.56,0,0,1,1.41-.75A1.34,1.34,0,0,1,209.52,147.07Z" style="fill:#263238"></path><path d="M213.51,146.93v2.2h-.46v-.55a1.36,1.36,0,0,1-1.23.59c-.8,0-1.29-.42-1.29-1s.35-1,1.37-1H213v-.22c0-.61-.35-.94-1-.94a1.79,1.79,0,0,0-1.18.42l-.22-.36a2.3,2.3,0,0,1,1.45-.48A1.26,1.26,0,0,1,213.51,146.93Zm-.48,1.14v-.59h-1.12c-.69,0-.91.27-.91.64s.33.67.9.67A1.15,1.15,0,0,0,213,148.07Z" style="fill:#263238"></path><path d="M214.7,144.46a.35.35,0,0,1,.35-.34.34.34,0,1,1,0,.68A.35.35,0,0,1,214.7,144.46Zm.11,1.12h.48v3.55h-.48Z" style="fill:#263238"></path><path d="M216.63,144.12h.48v5h-.48Z" style="fill:#263238"></path><path d="M205.89,161v.43h-3.35v-4.73h3.25v.43H203v1.68h2.45v.43H203V161Z" style="fill:#263238"></path><path d="M212.83,159.35v2.06h-.48v-2c0-.75-.38-1.14-1-1.14a1.14,1.14,0,0,0-1.19,1.28v1.87h-.48v-2c0-.75-.38-1.14-1-1.14a1.14,1.14,0,0,0-1.19,1.28v1.87H207v-3.56h.46v.65a1.45,1.45,0,0,1,1.31-.67,1.28,1.28,0,0,1,1.26.75,1.55,1.55,0,0,1,1.41-.75A1.34,1.34,0,0,1,212.83,159.35Z" style="fill:#263238"></path><path d="M216.81,159.21v2.2h-.46v-.55a1.33,1.33,0,0,1-1.22.58c-.8,0-1.3-.42-1.3-1s.36-1,1.38-1h1.13v-.21c0-.61-.35-.94-1-.94a1.83,1.83,0,0,0-1.19.42l-.21-.36a2.22,2.22,0,0,1,1.45-.48A1.26,1.26,0,0,1,216.81,159.21Zm-.47,1.13v-.58h-1.12c-.69,0-.91.27-.91.64s.33.67.9.67A1.14,1.14,0,0,0,216.34,160.34Z" style="fill:#263238"></path><path d="M218,156.73a.35.35,0,0,1,.35-.34.34.34,0,0,1,.35.34.35.35,0,1,1-.7,0Zm.11,1.12h.48v3.56h-.48Z" style="fill:#263238"></path><path d="M219.94,156.39h.47v5h-.47Z" style="fill:#263238"></path><path d="M225,159.35v2.06h-.48v-2a1,1,0,0,0-1.06-1.14,1.16,1.16,0,0,0-1.25,1.28v1.87h-.48v-3.56h.46v.66a1.5,1.5,0,0,1,1.35-.68A1.36,1.36,0,0,1,225,159.35Z" style="fill:#263238"></path><path d="M229,159.21v2.2h-.46v-.55a1.33,1.33,0,0,1-1.22.58c-.81,0-1.3-.42-1.3-1s.35-1,1.37-1h1.13v-.21c0-.61-.34-.94-1-.94a1.79,1.79,0,0,0-1.18.42l-.22-.36a2.24,2.24,0,0,1,1.45-.48A1.26,1.26,0,0,1,229,159.21Zm-.48,1.13v-.58h-1.11c-.69,0-.92.27-.92.64s.33.67.9.67A1.14,1.14,0,0,0,228.53,160.34Z" style="fill:#263238"></path><path d="M236.18,159.35v2.06h-.48v-2c0-.75-.38-1.14-1-1.14a1.14,1.14,0,0,0-1.19,1.28v1.87H233v-2c0-.75-.38-1.14-1-1.14a1.14,1.14,0,0,0-1.19,1.28v1.87h-.48v-3.56h.46v.65a1.45,1.45,0,0,1,1.31-.67,1.26,1.26,0,0,1,1.26.75,1.56,1.56,0,0,1,1.41-.75A1.34,1.34,0,0,1,236.18,159.35Z" style="fill:#263238"></path><path d="M240.59,159.78h-3A1.32,1.32,0,0,0,239,161a1.41,1.41,0,0,0,1.09-.47l.27.31a1.88,1.88,0,0,1-3.24-1.23,1.71,1.71,0,0,1,1.74-1.8,1.69,1.69,0,0,1,1.72,1.8S240.59,159.73,240.59,159.78Zm-3-.36h2.52a1.26,1.26,0,0,0-2.52,0Z" style="fill:#263238"></path><path d="M247.55,159.62c0,1.15-.43,1.82-1.13,1.82a.72.72,0,0,1-.76-.73,1.51,1.51,0,0,1-1.35.73,1.74,1.74,0,0,1,0-3.48,1.5,1.5,0,0,1,1.34.71V158h.44v2.56c0,.38.19.52.42.52.41,0,.68-.52.68-1.43a2.58,2.58,0,0,0-2.77-2.65,2.72,2.72,0,1,0,0,5.44,3,3,0,0,0,1.3-.3l.11.33a3.26,3.26,0,0,1-1.41.31,3.06,3.06,0,1,1,0-6.12A2.92,2.92,0,0,1,247.55,159.62Zm-1.9.07a1.29,1.29,0,1,0-2.57,0,1.29,1.29,0,1,0,2.57,0Z" style="fill:#263238"></path><path d="M251.65,159.78h-3a1.32,1.32,0,0,0,1.4,1.24,1.41,1.41,0,0,0,1.09-.47l.27.31a1.88,1.88,0,0,1-3.24-1.23,1.71,1.71,0,0,1,1.74-1.8,1.69,1.69,0,0,1,1.72,1.8S251.65,159.73,251.65,159.78Zm-3-.36h2.52a1.26,1.26,0,0,0-2.52,0Z" style="fill:#263238"></path><path d="M258.51,159.35v2.06H258v-2c0-.75-.38-1.14-1-1.14a1.14,1.14,0,0,0-1.19,1.28v1.87h-.48v-2c0-.75-.38-1.14-1-1.14a1.14,1.14,0,0,0-1.19,1.28v1.87h-.48v-3.56h.46v.65a1.44,1.44,0,0,1,1.3-.67,1.29,1.29,0,0,1,1.27.75,1.53,1.53,0,0,1,1.4-.75A1.34,1.34,0,0,1,258.51,159.35Z" style="fill:#263238"></path><path d="M262.49,159.21v2.2H262v-.55a1.34,1.34,0,0,1-1.22.58c-.81,0-1.3-.42-1.3-1s.35-1,1.37-1H262v-.21c0-.61-.34-.94-1-.94a1.79,1.79,0,0,0-1.18.42l-.22-.36a2.24,2.24,0,0,1,1.45-.48A1.26,1.26,0,0,1,262.49,159.21Zm-.48,1.13v-.58H260.9c-.69,0-.92.27-.92.64s.33.67.9.67A1.14,1.14,0,0,0,262,160.34Z" style="fill:#263238"></path><path d="M263.69,156.73a.35.35,0,1,1,.35.35A.35.35,0,0,1,263.69,156.73Zm.1,1.12h.48v3.56h-.48Z" style="fill:#263238"></path><path d="M265.61,156.39h.48v5h-.48Z" style="fill:#263238"></path><path d="M267.12,161.07a.35.35,0,0,1,.36-.36.36.36,0,0,1,.36.36.37.37,0,0,1-.36.37A.36.36,0,0,1,267.12,161.07Z" style="fill:#263238"></path><path d="M268.4,159.63a1.75,1.75,0,0,1,1.83-1.8,1.55,1.55,0,0,1,1.4.7l-.36.24a1.22,1.22,0,0,0-1-.52,1.39,1.39,0,0,0,0,2.77,1.2,1.2,0,0,0,1-.52l.36.24a1.57,1.57,0,0,1-1.4.7A1.75,1.75,0,0,1,268.4,159.63Z" style="fill:#263238"></path><path d="M272.15,159.63a1.81,1.81,0,1,1,1.81,1.81A1.75,1.75,0,0,1,272.15,159.63Zm3.13,0A1.33,1.33,0,1,0,274,161,1.3,1.3,0,0,0,275.28,159.63Z" style="fill:#263238"></path><path d="M282.61,159.35v2.06h-.48v-2c0-.75-.38-1.14-1-1.14a1.14,1.14,0,0,0-1.19,1.28v1.87h-.48v-2c0-.75-.38-1.14-1-1.14a1.14,1.14,0,0,0-1.19,1.28v1.87h-.48v-3.56h.46v.65a1.44,1.44,0,0,1,1.3-.67,1.29,1.29,0,0,1,1.27.75,1.54,1.54,0,0,1,1.4-.75A1.34,1.34,0,0,1,282.61,159.35Z" style="fill:#263238"></path><path d="M203.39,189.56l.84.48-.15.28-.85-.49v1h-.31v-1l-.85.49-.16-.28.85-.48-.85-.47.16-.29.85.5v-1h.31v1l.85-.5.15.29Z" style="fill:#263238"></path><path d="M206.14,189.56l.84.48-.16.28-.84-.49v1h-.32v-1l-.84.49-.17-.28.85-.48-.85-.47.17-.29.84.5v-1H206v1l.84-.5.16.29Z" style="fill:#263238"></path><path d="M208.88,189.56l.84.48-.16.28-.84-.49v1h-.31v-1l-.84.49-.16-.28.84-.48-.84-.47.16-.29.84.5v-1h.31v1l.84-.5.16.29Z" style="fill:#263238"></path><path d="M211.62,189.56l.84.48-.15.28-.85-.49v1h-.31v-1l-.85.49-.16-.28.85-.48-.85-.47.16-.29.85.5v-1h.31v1l.85-.5.15.29Z" style="fill:#263238"></path><path d="M214.37,189.56l.84.48-.16.28-.84-.49v1h-.32v-1l-.84.49-.17-.28.85-.48-.85-.47.17-.29.84.5v-1h.32v1l.84-.5.16.29Z" style="fill:#263238"></path><path d="M217.11,189.56l.84.48-.16.28-.84-.49v1h-.31v-1l-.84.49-.16-.28.84-.48-.84-.47.16-.29.84.5v-1H217v1l.84-.5.16.29Z" style="fill:#263238"></path><path d="M219.85,189.56l.84.48-.15.28-.85-.49v1h-.31v-1l-.85.49-.16-.28.85-.48-.85-.47.16-.29.85.5v-1h.31v1l.85-.5.15.29Z" style="fill:#263238"></path><path d="M222.6,189.56l.84.48-.16.28-.85-.49v1h-.31v-1l-.84.49-.17-.28.85-.48-.85-.47.17-.29.84.5v-1h.31v1l.85-.5.16.29Z" style="fill:#263238"></path><path d="M225.34,189.56l.84.48-.16.28-.84-.49v1h-.31v-1l-.84.49-.16-.28.84-.48-.84-.47.16-.29.84.5v-1h.31v1l.84-.5.16.29Z" style="fill:#263238"></path><path d="M228.08,189.56l.84.48-.15.28-.85-.49v1h-.31v-1l-.85.49-.16-.28.84-.48-.84-.47.16-.29.85.5v-1h.31v1l.85-.5.15.29Z" style="fill:#263238"></path><path d="M230.83,189.56l.83.48-.15.28-.85-.49v1h-.31v-1l-.84.49-.17-.28.85-.48-.85-.47.17-.29.84.5v-1h.31v1l.85-.5.15.29Z" style="fill:#263238"></path><path d="M202.94,176c0,1-.73,1.62-1.93,1.62h-1.27v1.49h-.51V174.4H201C202.21,174.4,202.94,175,202.94,176Zm-.5,0c0-.76-.5-1.19-1.45-1.19h-1.25v2.37H201C201.94,177.2,202.44,176.77,202.44,176Z" style="fill:#263238"></path><path d="M206.57,176.93v2.2h-.46v-.55a1.35,1.35,0,0,1-1.23.58c-.8,0-1.29-.41-1.29-1s.35-1,1.37-1h1.13v-.21c0-.61-.35-.94-1-.94a1.79,1.79,0,0,0-1.18.42l-.22-.36a2.24,2.24,0,0,1,1.45-.48A1.26,1.26,0,0,1,206.57,176.93Zm-.48,1.13v-.58H205c-.69,0-.91.27-.91.64s.33.67.9.67A1.14,1.14,0,0,0,206.09,178.06Z" style="fill:#263238"></path><path d="M207.38,178.73l.21-.38a2.2,2.2,0,0,0,1.27.4c.67,0,.95-.23.95-.59,0-.92-2.3-.19-2.3-1.6,0-.58.5-1,1.4-1a2.45,2.45,0,0,1,1.26.33l-.21.38a1.86,1.86,0,0,0-1.05-.3c-.64,0-.92.25-.92.59,0,1,2.3.24,2.3,1.6,0,.62-.54,1-1.47,1A2.37,2.37,0,0,1,207.38,178.73Z" style="fill:#263238"></path><path d="M210.68,178.73l.22-.38a2.15,2.15,0,0,0,1.26.4c.68,0,1-.23,1-.59,0-.92-2.3-.19-2.3-1.6,0-.58.5-1,1.41-1a2.39,2.39,0,0,1,1.25.33l-.21.38a1.85,1.85,0,0,0-1-.3c-.65,0-.93.25-.93.59,0,1,2.3.24,2.3,1.6,0,.62-.54,1-1.46,1A2.38,2.38,0,0,1,210.68,178.73Z" style="fill:#263238"></path><path d="M219.63,175.58l-1.35,3.55h-.45l-1.12-2.91-1.12,2.91h-.46l-1.33-3.55h.46l1.11,3,1.14-3h.42l1.13,3,1.13-3Z" style="fill:#263238"></path><path d="M219.89,177.35a1.81,1.81,0,1,1,1.81,1.81A1.75,1.75,0,0,1,219.89,177.35Zm3.13,0a1.32,1.32,0,1,0-2.64,0,1.32,1.32,0,1,0,2.64,0Z" style="fill:#263238"></path><path d="M226.28,175.55V176h-.12a1.15,1.15,0,0,0-1.19,1.31v1.81h-.48v-3.55H225v.69A1.33,1.33,0,0,1,226.28,175.55Z" style="fill:#263238"></path><path d="M230.35,174.12v5h-.46v-.7a1.53,1.53,0,0,1-1.37.73,1.81,1.81,0,0,1,0-3.61,1.54,1.54,0,0,1,1.35.7v-2.13Zm-.47,3.23a1.32,1.32,0,1,0-1.32,1.39A1.3,1.3,0,0,0,229.88,177.35Z" style="fill:#263238"></path><path d="M237.46,215v4.74H237v-4.3h-1.12V215Z" style="fill:#263238"></path><path d="M241.82,219.28v.44H238.5v-.35l2-1.93c.53-.52.64-.84.64-1.16,0-.55-.39-.89-1.11-.89a1.59,1.59,0,0,0-1.29.53l-.35-.3a2.14,2.14,0,0,1,1.68-.68c1,0,1.57.49,1.57,1.28a2,2,0,0,1-.78,1.48l-1.61,1.58Z" style="fill:#263238"></path><path d="M245.56,218.36c0,.79-.58,1.4-1.72,1.4a2.46,2.46,0,0,1-1.7-.61l.23-.39a2.09,2.09,0,0,0,1.47.55c.79,0,1.22-.36,1.22-.95s-.4-.94-1.28-.94h-.34v-.36l1.31-1.64h-2.42V215h3v.35L244,217C245.05,217.07,245.56,217.6,245.56,218.36Z" style="fill:#263238"></path><path d="M250.26,218.47h-.95v1.25h-.48v-1.25h-2.67v-.35l2.51-3.14h.54L246.79,218h2.05v-1.1h.47V218h.95Z" style="fill:#263238"></path><path d="M255.69,218.32c0,.81-.56,1.44-1.72,1.44a2.47,2.47,0,0,1-1.7-.61l.24-.39a2,2,0,0,0,1.45.55c.81,0,1.23-.39,1.23-1s-.38-1-1.58-1h-1l.25-2.38h2.59v.44h-2.17l-.16,1.5h.61C255.15,216.92,255.69,217.49,255.69,218.32Z" style="fill:#263238"></path><path d="M259.86,218.3a1.48,1.48,0,0,1-1.62,1.46c-1.26,0-1.94-.88-1.94-2.37s.88-2.45,2.16-2.45a2.22,2.22,0,0,1,1.13.26l-.2.39a1.68,1.68,0,0,0-.92-.22c-1,0-1.68.65-1.68,1.94,0,.11,0,.24,0,.38a1.53,1.53,0,0,1,1.45-.81A1.44,1.44,0,0,1,259.86,218.3Zm-.48,0c0-.63-.46-1-1.19-1a1.09,1.09,0,0,0-1.22,1c0,.52.43,1,1.25,1A1,1,0,0,0,259.38,218.32Z" style="fill:#263238"></path><path d="M263.7,215v.35l-2,4.39h-.53l1.95-4.3h-2.43v.88h-.48V215Z" style="fill:#263238"></path><path d="M267.85,218.4c0,.84-.71,1.36-1.84,1.36s-1.82-.52-1.82-1.36a1.19,1.19,0,0,1,.91-1.17,1,1,0,0,1-.74-1c0-.77.65-1.25,1.65-1.25s1.67.48,1.67,1.25a1.06,1.06,0,0,1-.76,1A1.2,1.2,0,0,1,267.85,218.4Zm-.5,0c0-.58-.5-.95-1.34-.95s-1.33.37-1.33.95.49,1,1.33,1S267.35,219,267.35,218.39ZM266,217.06c.74,0,1.18-.33,1.18-.85s-.47-.85-1.18-.85-1.17.32-1.17.85S265.27,217.06,266,217.06Z" style="fill:#263238"></path><path d="M273.71,217.31c0,1.61-.88,2.45-2.17,2.45a2.21,2.21,0,0,1-1.12-.26l.2-.39a1.68,1.68,0,0,0,.92.22c1,0,1.67-.66,1.67-1.94a2.62,2.62,0,0,0,0-.38,1.5,1.5,0,0,1-1.44.81,1.44,1.44,0,0,1-1.6-1.42,1.48,1.48,0,0,1,1.62-1.46C273,214.94,273.71,215.82,273.71,217.31Zm-.67-.94c0-.52-.43-1-1.25-1a1,1,0,0,0-1.16,1c0,.63.46,1,1.19,1A1.1,1.1,0,0,0,273,216.37Z" style="fill:#263238"></path><path d="M275.71,215v4.74h-.49v-4.3H274.1V215Z" style="fill:#263238"></path><path d="M276.83,217.35c0-1.51.8-2.41,1.89-2.41s1.89.9,1.89,2.41-.79,2.41-1.89,2.41S276.83,218.86,276.83,217.35Zm3.28,0c0-1.26-.56-2-1.39-2s-1.39.7-1.39,2,.57,2,1.39,2S280.11,218.61,280.11,217.35Z" style="fill:#263238"></path><path d="M282.61,215v4.74h-.49v-4.3H281V215Z" style="fill:#263238"></path><path d="M286.82,215v4.74h-.49v-4.3h-1.12V215Z" style="fill:#263238"></path><path d="M289.25,215v4.74h-.48v-4.3h-1.12V215Z" style="fill:#263238"></path><path d="M293.61,219.28v.44h-3.32v-.35l2-1.93c.53-.52.64-.84.64-1.16,0-.55-.39-.89-1.11-.89a1.59,1.59,0,0,0-1.29.53l-.35-.3a2.16,2.16,0,0,1,1.68-.68c1,0,1.57.49,1.57,1.28a2,2,0,0,1-.78,1.48L291,219.28Z" style="fill:#263238"></path><path d="M295.53,215v4.74H295v-4.3h-1.11V215Z" style="fill:#263238"></path><path d="M215.79,213.9v-.72a1.26,1.26,0,0,0-1.26-1.26H201.76a1.26,1.26,0,0,0-1.26,1.26v.72Z" style="fill:#263238"></path><path d="M200.5,214.89v5.3a1.26,1.26,0,0,0,1.26,1.26h12.77a1.26,1.26,0,0,0,1.26-1.26v-5.3Z" style="fill:#263238"></path><path d="M200.69,242.8c0-1.51.79-2.4,1.89-2.4s1.89.89,1.89,2.4-.8,2.41-1.89,2.41S200.69,244.31,200.69,242.8Zm3.28,0c0-1.26-.57-2-1.39-2s-1.39.7-1.39,2,.56,2,1.39,2S204,244.07,204,242.8Z" style="fill:#263238"></path><path d="M208.8,243.85c0,.84-.71,1.36-1.84,1.36s-1.82-.52-1.82-1.36a1.17,1.17,0,0,1,.91-1.16,1.07,1.07,0,0,1-.74-1c0-.77.65-1.25,1.65-1.25s1.67.48,1.67,1.25a1.08,1.08,0,0,1-.75,1A1.18,1.18,0,0,1,208.8,243.85Zm-.5,0c0-.58-.5-.94-1.34-.94s-1.33.36-1.33.94.5,1,1.33,1S208.3,244.43,208.3,243.84ZM207,242.51c.74,0,1.18-.33,1.18-.84s-.47-.86-1.18-.86-1.17.32-1.17.85S206.23,242.51,207,242.51Z" style="fill:#263238"></path><path d="M211.19,239.48h.44l-2.24,6.36H209Z" style="fill:#263238"></path><path d="M215,244.73v.44h-3.32v-.35l2-1.92c.53-.53.63-.85.63-1.17,0-.55-.38-.89-1.1-.89a1.61,1.61,0,0,0-1.3.53l-.34-.3a2.12,2.12,0,0,1,1.68-.67c1,0,1.56.48,1.56,1.27a1.94,1.94,0,0,1-.77,1.48l-1.61,1.58Z" style="fill:#263238"></path><path d="M218.79,243.77c0,.81-.56,1.44-1.72,1.44a2.47,2.47,0,0,1-1.7-.61l.24-.39a2,2,0,0,0,1.45.55c.81,0,1.23-.39,1.23-1s-.37-1-1.58-1h-1l.24-2.37h2.59v.43h-2.17l-.16,1.51h.61C218.25,242.38,218.79,242.94,218.79,243.77Z" style="fill:#263238"></path><path d="M202.9,237.39v.27h-2.08v-2.94h2V235h-1.7v1h1.52v.27h-1.52v1.09Z" style="fill:#263238"></path><path d="M205.43,237.66l-.94-1.3-1,1.3h-.36l1.12-1.51-1-1.43h.35l.89,1.2.88-1.2h.33l-1,1.42,1.12,1.52Z" style="fill:#263238"></path><path d="M208.55,235.73c0,.62-.46,1-1.2,1h-.79v.93h-.31v-2.94h1.1C208.09,234.72,208.55,235.1,208.55,235.73Zm-.31,0c0-.47-.31-.74-.9-.74h-.78v1.47h.78C207.93,236.46,208.24,236.19,208.24,235.73Z" style="fill:#263238"></path><path d="M210.37,234.72h1.19a1.47,1.47,0,1,1,0,2.94h-1.19Zm1.17,2.67a1.2,1.2,0,1,0,0-2.4h-.86v2.4Z" style="fill:#263238"></path><path d="M215.44,236.29v1.37h-.29v-.35a.82.82,0,0,1-.76.37c-.49,0-.8-.26-.8-.64s.22-.63.85-.63h.7v-.13a.54.54,0,0,0-.62-.59,1.13,1.13,0,0,0-.74.26l-.13-.22a1.39,1.39,0,0,1,.9-.3A.78.78,0,0,1,215.44,236.29Zm-.3.7v-.36h-.69c-.43,0-.57.17-.57.4s.21.41.56.41A.7.7,0,0,0,215.14,237Z" style="fill:#263238"></path><path d="M217.41,237.52a.66.66,0,0,1-.46.16.59.59,0,0,1-.65-.64V235.7h-.39v-.25h.39V235h.3v.48h.67v.25h-.67V237a.35.35,0,0,0,.38.4.52.52,0,0,0,.33-.11Z" style="fill:#263238"></path><path d="M219.8,236.65H218a.82.82,0,0,0,.87.76.86.86,0,0,0,.68-.29l.17.2a1.12,1.12,0,0,1-.86.36,1.09,1.09,0,0,1-1.15-1.13,1.06,1.06,0,0,1,1.07-1.12,1,1,0,0,1,1.07,1.12Zm-1.85-.23h1.57a.79.79,0,0,0-1.57,0Z" style="fill:#263238"></path><path d="M256.54,240.44v4.73h-.48v-4.3h-1.12v-.43Z" style="fill:#263238"></path><path d="M260.9,244.73v.44h-3.32v-.35l2-1.92c.53-.53.64-.85.64-1.17,0-.55-.39-.89-1.11-.89a1.59,1.59,0,0,0-1.29.53l-.35-.3a2.14,2.14,0,0,1,1.68-.67c1,0,1.57.48,1.57,1.27a2,2,0,0,1-.78,1.48l-1.61,1.58Z" style="fill:#263238"></path><path d="M264.64,243.81c0,.79-.58,1.4-1.72,1.4a2.46,2.46,0,0,1-1.7-.61l.24-.39a2,2,0,0,0,1.46.55c.79,0,1.22-.36,1.22-.95s-.4-.94-1.28-.94h-.34v-.36l1.31-1.64h-2.42v-.43h3v.34l-1.34,1.68C264.13,242.52,264.64,243.05,264.64,243.81Z" style="fill:#263238"></path><path d="M255.1,236.19a1.48,1.48,0,0,1,1.54-1.5,1.43,1.43,0,0,1,1.07.43l-.19.2a1.19,1.19,0,0,0-.87-.35,1.22,1.22,0,1,0,0,2.43,1.15,1.15,0,0,0,.87-.35l.19.2a1.4,1.4,0,0,1-1.08.43A1.47,1.47,0,0,1,255.1,236.19Z" style="fill:#263238"></path><path d="M262.38,234.72l-1,2.94h-.33l-.86-2.51-.86,2.51H259l-1-2.94h.32l.85,2.53.88-2.53h.29l.86,2.54.86-2.54Z" style="fill:#263238"></path><path d="M230.31,270.58h-2.64l-.57,1.27h-.52l2.16-4.73h.5l2.16,4.73h-.53Zm-.19-.4L229,267.64l-1.14,2.54Z" style="fill:#263238"></path><path d="M231.69,270.07a1.75,1.75,0,0,1,1.83-1.81,1.54,1.54,0,0,1,1.39.71l-.35.24a1.23,1.23,0,0,0-1-.53,1.39,1.39,0,0,0,0,2.78,1.24,1.24,0,0,0,1-.52l.35.24a1.56,1.56,0,0,1-1.39.7A1.75,1.75,0,0,1,231.69,270.07Z" style="fill:#263238"></path><path d="M237.76,271.63a1.11,1.11,0,0,1-.75.25.94.94,0,0,1-1-1V268.7h-.63v-.41H236v-.78h.48v.78h1.09v.41h-1.09v2.12a.57.57,0,0,0,.62.65.83.83,0,0,0,.53-.18Z" style="fill:#263238"></path><path d="M238.53,267.17a.35.35,0,0,1,.7,0,.35.35,0,0,1-.7,0Zm.11,1.12h.48v3.56h-.48Z" style="fill:#263238"></path><path d="M240.09,270.07a1.81,1.81,0,1,1,1.82,1.81A1.76,1.76,0,0,1,240.09,270.07Zm3.13,0a1.32,1.32,0,1,0-1.31,1.39A1.3,1.3,0,0,0,243.22,270.07Z" style="fill:#263238"></path><path d="M248,269.79v2.06h-.48v-2a1,1,0,0,0-1.07-1.13,1.16,1.16,0,0,0-1.24,1.28v1.87h-.48v-3.56h.46V269a1.51,1.51,0,0,1,1.35-.69A1.37,1.37,0,0,1,248,269.79Z" style="fill:#263238"></path><path d="M251.64,267.55v1.86h2.44v.43h-2.44v2h-.5v-4.73h3.24v.43Z" style="fill:#263238"></path><path d="M255.14,267.17a.35.35,0,0,1,.7,0,.35.35,0,0,1-.7,0Zm.1,1.12h.48v3.56h-.48Z" style="fill:#263238"></path><path d="M260.35,268.29v3.13a1.55,1.55,0,0,1-1.77,1.77,2.49,2.49,0,0,1-1.66-.54l.24-.37a2.14,2.14,0,0,0,1.4.49c.9,0,1.31-.42,1.31-1.29V271a1.57,1.57,0,0,1-1.38.69,1.73,1.73,0,1,1,0-3.45,1.61,1.61,0,0,1,1.4.71v-.68Zm-.46,1.69a1.35,1.35,0,1,0-1.35,1.31A1.27,1.27,0,0,0,259.89,270Z" style="fill:#263238"></path><path d="M264.9,268.29v3.56h-.46v-.65a1.42,1.42,0,0,1-1.28.68,1.38,1.38,0,0,1-1.5-1.53v-2.06h.48v2a1,1,0,0,0,1.07,1.14,1.16,1.16,0,0,0,1.21-1.29v-1.87Z" style="fill:#263238"></path><path d="M268,268.26v.47h-.12a1.16,1.16,0,0,0-1.2,1.32v1.81h-.48v-3.56h.46v.7A1.37,1.37,0,0,1,268,268.26Z" style="fill:#263238"></path><path d="M272,270.22h-3a1.32,1.32,0,0,0,1.4,1.24,1.41,1.41,0,0,0,1.09-.47l.27.31a1.88,1.88,0,0,1-3.24-1.23,1.72,1.72,0,0,1,1.74-1.81,1.69,1.69,0,0,1,1.72,1.81S272,270.16,272,270.22Zm-3-.36h2.52a1.26,1.26,0,0,0-2.52,0Z" style="fill:#263238"></path><path d="M232.43,290.82v2.08h-1.85v-2a8.79,8.79,0,0,1-4.63-1.49l1-2.26a7.5,7.5,0,0,0,3.61,1.32v-3.1c-2.07-.51-4.37-1.19-4.37-3.85,0-2,1.43-3.66,4.37-4v-2.06h1.85v2a8.39,8.39,0,0,1,3.77,1.14l-.93,2.28a7.68,7.68,0,0,0-2.84-1v3.16c2.06.48,4.33,1.17,4.33,3.79C236.76,288.8,235.35,290.47,232.43,290.82Zm-1.85-8.2V280c-1,.22-1.38.76-1.38,1.37S229.76,282.36,230.58,282.62Zm3.19,4.47c0-.65-.54-1-1.34-1.28v2.56C233.36,288.17,233.77,287.69,233.77,287.09Z" style="fill:#263238"></path><path d="M247.71,288.22v2.46h-9.82v-1.95l5-4.74c1.16-1.1,1.36-1.76,1.36-2.4,0-1-.71-1.61-2.08-1.61a3.18,3.18,0,0,0-2.69,1.3l-2.19-1.41a6,6,0,0,1,5.16-2.42c2.9,0,4.83,1.49,4.83,3.85,0,1.26-.36,2.41-2.18,4.1l-3,2.82Z" style="fill:#263238"></path><path d="M248.92,284.18c0-4.29,2.38-6.73,5.57-6.73s5.57,2.44,5.57,6.73-2.36,6.72-5.57,6.72S248.92,288.47,248.92,284.18Zm8.12,0c0-3-1-4.18-2.55-4.18s-2.52,1.22-2.52,4.18,1,4.17,2.52,4.17S257,287.13,257,284.18Z" style="fill:#263238"></path><path d="M261.53,284.18c0-4.29,2.38-6.73,5.57-6.73s5.57,2.44,5.57,6.73-2.36,6.72-5.57,6.72S261.53,288.47,261.53,284.18Zm8.11,0c0-3-1-4.18-2.54-4.18s-2.53,1.22-2.53,4.18,1,4.17,2.53,4.17S269.64,287.13,269.64,284.18Z" style="fill:#263238"></path><path d="M270.15,323.78H228.69a9.71,9.71,0,0,1-9.7-9.7h0a9.71,9.71,0,0,1,9.7-9.71h41.46a9.7,9.7,0,0,1,9.7,9.71h0A9.7,9.7,0,0,1,270.15,323.78Z" style="fill:#263238"></path><path d="M236.12,313c0,1.22-.88,1.95-2.33,1.95h-1.54v1.8h-.6v-5.7h2.14C235.24,311.09,236.12,311.82,236.12,313Zm-.61,0c0-.91-.6-1.43-1.74-1.43h-1.52v2.85h1.52C234.91,314.46,235.51,313.94,235.51,313Z" style="fill:#fff"></path><path d="M240.49,314.13v2.66h-.55v-.67a1.62,1.62,0,0,1-1.48.71c-1,0-1.56-.5-1.56-1.25s.42-1.21,1.65-1.21h1.36v-.26c0-.73-.41-1.13-1.21-1.13a2.2,2.2,0,0,0-1.43.5l-.26-.43a2.71,2.71,0,0,1,1.75-.58A1.52,1.52,0,0,1,240.49,314.13Zm-.58,1.37v-.7h-1.34c-.83,0-1.1.33-1.1.77s.4.81,1.08.81A1.36,1.36,0,0,0,239.91,315.5Z" style="fill:#fff"></path><path d="M245.58,312.5l-2.14,4.8c-.36.84-.81,1.11-1.42,1.11A1.48,1.48,0,0,1,241,318l.27-.43a1.07,1.07,0,0,0,.78.33c.39,0,.65-.18.89-.72l.19-.42-1.92-4.28h.61l1.61,3.65L245,312.5Z" style="fill:#fff"></path><path d="M250.47,316.83v.94h-.41v-.93a3,3,0,0,1-1.95-.74l.24-.47a2.73,2.73,0,0,0,1.71.69v-2.14c-.9-.22-1.81-.5-1.81-1.58,0-.78.56-1.46,1.81-1.55v-.94h.41V311a3.15,3.15,0,0,1,1.65.5l-.2.48a3.14,3.14,0,0,0-1.45-.47v2.16c.92.22,1.89.48,1.89,1.57C252.36,316.07,251.76,316.76,250.47,316.83Zm-.41-3.22v-2c-.84.07-1.22.5-1.22,1S249.39,313.43,250.06,313.61Zm1.7,1.71c0-.65-.59-.87-1.29-1v2C251.36,316.25,251.76,315.84,251.76,315.32Z" style="fill:#fff"></path><path d="M257.06,316.27v.52h-4v-.41l2.37-2.33c.64-.63.76-1,.76-1.41,0-.66-.46-1.06-1.33-1.06a2,2,0,0,0-1.56.63l-.42-.36a2.59,2.59,0,0,1,2-.81c1.15,0,1.89.59,1.89,1.54a2.34,2.34,0,0,1-.94,1.78l-1.94,1.91Z" style="fill:#fff"></path><path d="M257.76,313.94c0-1.82.95-2.9,2.27-2.9s2.28,1.08,2.28,2.9-1,2.9-2.28,2.9S257.76,315.76,257.76,313.94Zm3.95,0c0-1.52-.68-2.36-1.68-2.36s-1.68.84-1.68,2.36.69,2.36,1.68,2.36S261.71,315.46,261.71,313.94Z" style="fill:#fff"></path><path d="M263.15,313.94c0-1.82,1-2.9,2.28-2.9s2.28,1.08,2.28,2.9-1,2.9-2.28,2.9S263.15,315.76,263.15,313.94Zm4,0c0-1.52-.68-2.36-1.67-2.36s-1.68.84-1.68,2.36.68,2.36,1.68,2.36S267.1,315.46,267.1,313.94Z" style="fill:#fff"></path><path d="M186.69,293.24c1.5,23.05-9.18,48.72-9.18,48.72l-57.69-16.24-10.06-2.84c10-13.89,14.76-41.25,12.15-63.39-.2-1.67-.32-3.24-.41-4.74-1-18.26,6.59-23.6,13-31.67,7-8.74,22.58-41.74,22.58-49.55s19.55-26.93,15.2-48.63c0,0,5.91-3.67,11.85-.66,2.7,1.36,5.39,4.09,7.56,9.15,5.09,11.89-2.06,45.5-8.14,53.74l-11.71,48.48s3.95,6.81,7.83,19.17A164.89,164.89,0,0,1,186.69,293.24Z" style="fill:#fff"></path><path d="M121.5,254.75c3.27,8.95,6.74,15,6.44,27.54s-7,31.84-5.09,41.87a8.83,8.83,0,0,0-3,1.56l-10.06-2.84c10-13.89,14.76-41.25,12.15-63.39C121.71,257.82,121.59,256.25,121.5,254.75Z" style="fill:#92E3A9;opacity:0.4"></path><path d="M183.55,187.13l-11.71,48.48s3.95,6.81,7.83,19.17l0,0C171.74,242,165,238.18,165,238.18c5.28-6.33,9.35-52.63,9.35-52.63s16.55-19.45,15-39.8a65,65,0,0,0-5.22-21.51c2.7,1.36,5.39,4.09,7.56,9.15C196.78,145.28,189.63,178.89,183.55,187.13Z" style="fill:#92E3A9;opacity:0.4"></path><path d="M109.76,322.88c10-13.89,14.76-41.25,12.16-63.39s5.64-27.68,12.59-36.42,22.57-41.73,22.57-49.55,19.54-26.91,15.2-48.62c0,0,12.47-7.73,19.41,8.49,5.09,11.9-2.06,45.5-8.14,53.75l-11.7,48.47s12.49,21.55,14.84,57.63c1.5,23.05-9.18,48.73-9.18,48.73" style="fill:none;stroke:#263238;stroke-linecap:round;stroke-linejoin:round"></path><path d="M148.32,360.41s13.13,8.08,20.79,20.86" style="fill:none;stroke:#263238;stroke-linecap:round;stroke-linejoin:round"></path><path d="M185.2,375.7s-11.31,1.61-21.53-10.62c-6.55-7.83-26.44-11.37-31-31.85" style="fill:none;stroke:#263238;stroke-linecap:round;stroke-linejoin:round"></path></g></svg>